<svg width="24" height="24" viewBox="0 0 24 24" fill="none" xmlns="http://www.w3.org/2000/svg">
<path d="M9 16.75C9.41421 16.75 9.75 16.4142 9.75 16C9.75 15.5858 9.41421 15.25 9 15.25V16.75ZM8.75 2C8.75 1.58579 8.41421 1.25 8 1.25C7.58579 1.25 7.25 1.58579 7.25 2H8.75ZM7.25 16C7.25 16.4142 7.58579 16.75 8 16.75C8.41421 16.75 8.75 16.4142 8.75 16H7.25ZM16.4268 17.9447L15.9746 17.3463L16.4268 17.9447ZM19.4522 16.5984C19.7827 16.3486 19.8481 15.8783 19.5984 15.5478C19.3486 15.2173 18.8783 15.1519 18.5478 15.4016L19.4522 16.5984ZM16.0732 17.9447L16.5254 17.3463V17.3463L16.0732 17.9447ZM15.4522 16.5352C15.1217 16.2855 14.6514 16.3509 14.4016 16.6814C14.1519 17.0119 14.2173 17.4822 14.5478 17.7319L15.4522 16.5352ZM7 16.75H9V15.25H7V16.75ZM10 21.25H7V22.75H10V21.25ZM7 21.25C5.75736 21.25 4.75 20.2426 4.75 19H3.25C3.25 21.0711 4.92893 22.75 7 22.75V21.25ZM7 15.25C4.92893 15.25 3.25 16.9289 3.25 19H4.75C4.75 17.7574 5.75736 16.75 7 16.75V15.25ZM7 2.75H18V1.25H7V2.75ZM18 2.75C18.6904 2.75 19.25 3.30964 19.25 4H20.75C20.75 2.48122 19.5188 1.25 18 1.25V2.75ZM7 1.25C4.92893 1.25 3.25 2.92893 3.25 5H4.75C4.75 3.75736 5.75736 2.75 7 2.75V1.25ZM3.25 5V19H4.75V5H3.25ZM19.25 4V9H20.75V4H19.25ZM7.25 2V16H8.75V2H7.25ZM16.879 18.543L19.4522 16.5984L18.5478 15.4016L15.9746 17.3463L16.879 18.543ZM16.5254 17.3463L15.4522 16.5352L14.5478 17.7319L15.621 18.543L16.5254 17.3463ZM15.9746 17.3463C16.0772 17.2688 16.1795 17.25 16.25 17.25C16.3205 17.25 16.4228 17.2688 16.5254 17.3463L15.621 18.543C15.8212 18.6943 16.0515 18.75 16.25 18.75C16.4485 18.75 16.6788 18.6943 16.879 18.543L15.9746 17.3463ZM21.25 17C21.25 19.3472 19.3472 21.25 17 21.25V22.75C20.1756 22.75 22.75 20.1756 22.75 17H21.25ZM17 21.25C14.6528 21.25 12.75 19.3472 12.75 17H11.25C11.25 20.1756 13.8244 22.75 17 22.75V21.25ZM12.75 17C12.75 14.6528 14.6528 12.75 17 12.75V11.25C13.8244 11.25 11.25 13.8244 11.25 17H12.75ZM17 12.75C19.3472 12.75 21.25 14.6528 21.25 17H22.75C22.75 13.8244 20.1756 11.25 17 11.25V12.75Z" fill="black"/>
</svg>
