<svg width="24" height="24" viewBox="0 0 24 24" fill="none" xmlns="http://www.w3.org/2000/svg">
<path d="M9 16.75C9.41421 16.75 9.75 16.4142 9.75 16C9.75 15.5858 9.41421 15.25 9 15.25V16.75ZM19.0303 16.0303C19.3232 15.7374 19.3232 15.2626 19.0303 14.9697C18.7374 14.6768 18.2626 14.6768 17.9697 14.9697L19.0303 16.0303ZM14.9697 17.9697C14.6768 18.2626 14.6768 18.7374 14.9697 19.0303C15.2626 19.3232 15.7374 19.3232 16.0303 19.0303L14.9697 17.9697ZM17.9697 19.0303C18.2626 19.3232 18.7374 19.3232 19.0303 19.0303C19.3232 18.7374 19.3232 18.2626 19.0303 17.9697L17.9697 19.0303ZM16.0303 14.9697C15.7374 14.6768 15.2626 14.6768 14.9697 14.9697C14.6768 15.2626 14.6768 15.7374 14.9697 16.0303L16.0303 14.9697ZM8.75 2C8.75 1.58579 8.41421 1.25 8 1.25C7.58579 1.25 7.25 1.58579 7.25 2H8.75ZM7.25 16C7.25 16.4142 7.58579 16.75 8 16.75C8.41421 16.75 8.75 16.4142 8.75 16H7.25ZM7 16.75H9V15.25H7V16.75ZM10 21.25H7V22.75H10V21.25ZM7 21.25C5.75736 21.25 4.75 20.2426 4.75 19H3.25C3.25 21.0711 4.92893 22.75 7 22.75V21.25ZM7 15.25C4.92893 15.25 3.25 16.9289 3.25 19H4.75C4.75 17.7574 5.75736 16.75 7 16.75V15.25ZM7 2.75H18V1.25H7V2.75ZM18 2.75C18.6904 2.75 19.25 3.30964 19.25 4H20.75C20.75 2.48122 19.5188 1.25 18 1.25V2.75ZM7 1.25C4.92893 1.25 3.25 2.92893 3.25 5H4.75C4.75 3.75736 5.75736 2.75 7 2.75V1.25ZM3.25 5V19H4.75V5H3.25ZM19.25 4V9H20.75V4H19.25ZM17.9697 14.9697L16.4697 16.4697L17.5303 17.5303L19.0303 16.0303L17.9697 14.9697ZM16.4697 16.4697L14.9697 17.9697L16.0303 19.0303L17.5303 17.5303L16.4697 16.4697ZM19.0303 17.9697L17.5303 16.4697L16.4697 17.5303L17.9697 19.0303L19.0303 17.9697ZM17.5303 16.4697L16.0303 14.9697L14.9697 16.0303L16.4697 17.5303L17.5303 16.4697ZM7.25 2V16H8.75V2H7.25ZM21.25 17C21.25 19.3472 19.3472 21.25 17 21.25V22.75C20.1756 22.75 22.75 20.1756 22.75 17H21.25ZM17 21.25C14.6528 21.25 12.75 19.3472 12.75 17H11.25C11.25 20.1756 13.8244 22.75 17 22.75V21.25ZM12.75 17C12.75 14.6528 14.6528 12.75 17 12.75V11.25C13.8244 11.25 11.25 13.8244 11.25 17H12.75ZM17 12.75C19.3472 12.75 21.25 14.6528 21.25 17H22.75C22.75 13.8244 20.1756 11.25 17 11.25V12.75Z" fill="black"/>
</svg>
