<svg xmlns="http://www.w3.org/2000/svg" width="24" height="24" fill="none"><path stroke="#000" stroke-linecap="round" d="M9 6H15M9 6c-1.977.002-3.013.027-3.816.436a4 4 0 0 0-1.748 1.748C3 9.04 3 10.16 3 12.4v1.2c0 2.24 0 3.36.436 4.216a4 4 0 0 0 1.748 1.748C6.04 20 7.16 20 9.4 20h5.2c2.24 0 3.36 0 4.216-.436a4 4 0 0 0 1.748-1.748C21 16.96 21 15.84 21 13.6v-1.2c0-2.24 0-3.36-.436-4.216a4 4 0 0 0-1.748-1.748c-.803-.41-1.84-.434-3.816-.436M9 6V5a2 2 0 0 1 2-2h2a2 2 0 0 1 2 2v1m0 7a3 3 0 1 1-6 0 3 3 0 0 1 6 0Z" opacity=".3"/></svg>