<svg width="56" height="100" viewBox="0 0 56 100" fill="none" xmlns="http://www.w3.org/2000/svg">
<rect x="0.5" y="0.5" width="55" height="99" rx="4.5" stroke="#9747FF" stroke-dasharray="10 5"/>
<path d="M19.2524 25.82C19.0645 25.7527 18.9109 26.0224 19.0599 26.1476C22.5168 29.0532 23.0374 34.9101 22.8278 37.8296C22.8211 37.9229 22.9011 38 23.0024 38H25.4066C25.5026 38 25.5804 37.9263 25.5801 37.8377C25.5583 31.1642 24.1733 27.5823 19.2524 25.82Z" fill="#14AE5C"/>
<path d="M37.7476 25.82C37.9356 25.7527 38.0891 26.0224 37.9401 26.1476C34.4832 29.0532 33.9626 34.9101 34.1722 37.8296C34.1789 37.9229 34.0989 38 33.9976 38H31.5934C31.4974 38 31.4196 37.9263 31.4199 37.8377C31.4417 31.1642 32.8267 27.5823 37.7476 25.82Z" fill="#14AE5C"/>
<path d="M29.6681 25.119C29.6441 25.065 29.6532 25.0035 29.693 24.9581C30.686 23.8266 32.0399 22.9858 33.8553 22.3768C34.0368 22.316 34.1732 22.5459 34.0305 22.6659C32.5757 23.8885 30.5854 26.1136 30.5854 28.3786C30.5854 27.4143 29.9971 25.8582 29.6681 25.119Z" fill="#14AE5C"/>
<path d="M22.2676 19.0111C22.0893 18.9471 21.9505 19.1755 22.084 19.3018C26.1148 23.1141 27.1972 34.6309 26.9975 37.8339C26.9916 37.9272 27.0719 38 27.1733 38H29.5775C29.6734 38 29.7513 37.9297 29.7511 37.8411C29.7336 30.8706 28.5544 21.2669 22.2676 19.0111Z" fill="#14AE5C"/>
<path d="M19.2753 58.3134C19.0703 58.2412 18.9028 58.5304 19.0654 58.6648C23.8153 59.7846 25.1489 63.6865 24.9203 66.8173C24.913 66.9173 25.0003 67 25.1108 67H26.0542C26.1589 67 26.2438 66.9209 26.2435 66.826C25.5426 61.058 24.6435 60.2033 19.2753 58.3134Z" fill="#F6AB48"/>
<path d="M37.7247 58.3134C37.9297 58.2412 38.0972 58.5304 37.9346 58.6648C33.0499 60.0391 31.7913 63.6865 32.0199 66.8173C32.0272 66.9173 31.94 67 31.8295 67H31.0762C30.9715 67 30.8866 66.9209 30.8869 66.826C32.0199 60.2091 32.3565 60.2033 37.7247 58.3134Z" fill="#F6AB48"/>
<path d="M29.7744 57.5617C29.7481 57.5038 29.758 57.4378 29.8015 57.3892C30.8848 56.1758 32.3617 55.2742 34.3422 54.6212C34.5402 54.5559 34.689 54.8025 34.5333 54.9311C32.9462 56.2421 30.775 58.6283 30.775 61.0572C30.775 60.0231 30.1333 58.3544 29.7744 57.5617Z" fill="#F6AB48"/>
<path d="M21.7011 51.0119C21.5066 50.9433 21.3551 51.1882 21.5008 51.3237C25.898 55.4118 27.1441 63.3872 26.9261 66.8218C26.9198 66.9219 27.0074 67 27.1179 67H29.7407C29.8454 67 29.9303 66.9246 29.9301 66.8296C29.911 59.3548 28.5594 53.4309 21.7011 51.0119Z" fill="#F6AB48"/>
</svg>
