<svg width="28" height="32" viewBox="0 0 28 32" fill="none" xmlns="http://www.w3.org/2000/svg">
<path d="M6.07079 1.51631L1.70951 0.0133766C1.55521 -0.039798 1.39357 0.0720431 1.3904 0.234177L1.30477 4.61836C2.41658 3.05591 4.13823 1.51631 6.07079 1.51631Z" fill="#14AE5C"/>
<path d="M17.1747 0.250897C17.1829 0.0841151 17.0204 -0.0391897 16.8605 0.0123782L12.1953 1.51631C14.1279 1.51631 15.8495 3.05591 16.9613 4.61836L17.1747 0.250897Z" fill="#14AE5C"/>
<path d="M0 21.6797C0 18.9081 1.1004 16.3918 2.89111 14.5377C1.15641 13.3511 0 11.2226 0 8.79421V21.6797Z" fill="#14AE5C"/>
<path d="M13.3442 32H14.6566C14.6566 30.9553 14.4341 29.8593 14 28.8557C13.5661 29.8593 13.3442 30.9553 13.3442 32Z" fill="#14AE5C"/>
<path fill-rule="evenodd" clip-rule="evenodd" d="M28 21.6797C28 15.9799 23.5446 11.3793 17.8037 11.3793C18.1811 10.2182 18.2692 9.17211 18.2661 8.79421C18.2661 7.21717 17.7784 5.76661 16.9613 4.61836C15.8495 3.05591 14.1279 1.51631 12.1953 1.51631C11.176 1.23792 8.52399 0.84817 6.07079 1.51631C4.13823 1.51631 2.41658 3.05591 1.30477 4.61836C0.487705 5.76661 0 7.21717 0 8.79421C0 11.2226 1.15641 13.3511 2.89111 14.5377C1.1004 16.3918 0 18.9081 0 21.6797C0 27.0427 4.12035 31.4504 9.3896 31.9524C9.11781 30.8197 8.77879 30.1596 8.64326 29.9711C8.31691 29.3545 7.83858 28.7941 7.23558 28.3221C6.63258 27.8501 5.91671 27.4757 5.12884 27.2203C4.34098 26.9648 3.49655 26.8334 2.64378 26.8334L2.64378 24.2919C3.92294 24.2919 5.18958 24.4891 6.37138 24.8722C7.55317 25.2554 8.62697 25.817 9.53148 26.525C9.80007 26.7353 10.0522 26.9572 10.2867 27.1895C10.31 27.144 10.3336 27.0987 10.3576 27.0534C10.6491 26.5024 10.9893 25.9694 11.3748 25.458C11.2971 25.3937 11.2182 25.3301 11.1381 25.2674C10.0226 24.3943 8.69833 23.7017 7.24087 23.2292C5.78341 22.7566 4.22132 22.5134 2.64378 22.5134L2.64378 19.2089C4.77572 19.2089 6.88678 19.5376 8.85644 20.1762C10.7727 20.7975 12.5186 21.7003 14 22.8354C15.4815 21.7003 17.2273 20.7975 19.1436 20.1762C21.1132 19.5376 23.2243 19.2089 25.3563 19.2089V22.5134C23.7787 22.5134 22.2166 22.7566 20.7592 23.2292C19.3017 23.7017 17.9774 24.3943 16.8619 25.2674C16.7818 25.3301 16.7029 25.3937 16.6252 25.458C17.0108 25.9694 17.3509 26.5024 17.6425 27.0534C17.6664 27.0987 17.6901 27.1441 17.7133 27.1895C17.9479 26.9572 18.2 26.7353 18.4686 26.525C19.3731 25.817 20.4469 25.2554 21.6287 24.8722C22.8104 24.4891 24.0771 24.2919 25.3563 24.2919V26.8334C24.5035 26.8334 23.6591 26.9648 22.8712 27.2203C22.0833 27.4757 21.3675 27.8501 20.7645 28.3221C20.1614 28.7941 19.6831 29.3545 19.3568 29.9711C19.08 30.4941 18.9169 31.0553 18.8737 31.6209C18.8767 31.7217 18.8783 31.8225 18.8783 31.9234C18.8952 31.9213 18.9122 31.9192 18.9291 31.9171C19.1892 31.8843 19.4463 31.8419 19.7001 31.7903C24.4368 30.828 28 26.667 28 21.6797ZM7.57082 9.30618C8.0354 9.30618 8.41202 8.93226 8.41202 8.47101C8.41202 8.00976 8.0354 7.63584 7.57082 7.63584C7.10623 7.63584 6.72961 8.00976 6.72961 8.47101C6.72961 8.93226 7.10623 9.30618 7.57082 9.30618ZM12.4979 9.30618C12.9624 9.30618 13.3391 8.93226 13.3391 8.47101C13.3391 8.00976 12.9624 7.63584 12.4979 7.63584C12.0333 7.63584 11.6567 8.00976 11.6567 8.47101C11.6567 8.93226 12.0333 9.30618 12.4979 9.30618Z" fill="#14AE5C"/>
</svg>
