<svg width="24" height="24" viewBox="0 0 24 24" fill="none" xmlns="http://www.w3.org/2000/svg">
<path d="M17 2.12687C15.7102 2 14.0858 2 12 2C9.91416 2 8.28978 2 7 2.12687V8.8076C7 9.78253 7 10.27 7.12914 10.5607C7.42342 11.2233 8.14942 11.5805 8.85391 11.4095C9.16307 11.3344 9.5493 11.037 10.3218 10.4422C10.7579 10.1064 10.976 9.9385 11.203 9.83985C11.7114 9.61899 12.2886 9.61899 12.797 9.83985C13.024 9.9385 13.2421 10.1064 13.6782 10.4422C14.4507 11.037 14.8369 11.3344 15.1461 11.4095C15.8506 11.5805 16.5766 11.2233 16.8709 10.5607C17 10.27 17 9.78253 17 8.8076V2.12687Z" fill="#14AE5C"/>
<path d="M17 2V2.12687M7 2V2.12687M17 2.12687C15.7102 2 14.0858 2 12 2C9.91416 2 8.28978 2 7 2.12687M17 2.12687V8.8076C17 9.78253 17 10.27 16.8709 10.5607C16.5766 11.2233 15.8506 11.5805 15.1461 11.4095C14.8369 11.3344 14.4507 11.037 13.6782 10.4422C13.2421 10.1064 13.024 9.9385 12.797 9.83985C12.2886 9.61899 11.7114 9.61899 11.203 9.83985C10.976 9.9385 10.7579 10.1064 10.3218 10.4422C9.5493 11.037 9.16307 11.3344 8.85391 11.4095C8.14942 11.5805 7.42342 11.2233 7.12914 10.5607C7 10.27 7 9.78253 7 8.8076V2.12687M17 2.12687C18.6251 2.28672 19.7191 2.64799 20.5355 3.46447C22 4.92893 22 7.28595 22 12C22 16.714 22 19.0711 20.5355 20.5355C19.0711 22 16.714 22 12 22C7.28595 22 4.92893 22 3.46447 20.5355C2 19.0711 2 16.714 2 12C2 7.28595 2 4.92893 3.46447 3.46447C4.28094 2.64799 5.37486 2.28672 7 2.12687" stroke="#14AE5C" stroke-width="1.5"/>
</svg>
