<svg width="24" height="24" viewBox="0 0 24 24" fill="none" xmlns="http://www.w3.org/2000/svg">
<path d="M3.27534 11.3134C3.07031 11.2412 2.90276 11.5304 3.06535 11.6648C7.81534 12.7846 9.14894 16.6865 8.92033 19.8173C8.91302 19.9173 9.00025 20 9.11079 20H10.0542C10.1589 20 10.2438 19.9209 10.2435 19.826C9.54261 14.058 8.64353 13.2033 3.27534 11.3134Z" fill="#F6AB48"/>
<path d="M21.7247 11.3134C21.9297 11.2412 22.0972 11.5304 21.9346 11.6648C17.0499 13.0391 15.7913 16.6865 16.0199 19.8173C16.0272 19.9173 15.94 20 15.8295 20H15.0762C14.9715 20 14.8866 19.9209 14.8869 19.826C16.0199 13.2091 16.3565 13.2033 21.7247 11.3134Z" fill="#F6AB48"/>
<path d="M13.7744 10.5617C13.7481 10.5038 13.758 10.4378 13.8015 10.3892C14.8848 9.17577 16.3617 8.27419 18.3422 7.62117C18.5402 7.55589 18.689 7.80245 18.5333 7.93111C16.9462 9.24214 14.775 11.6283 14.775 14.0572C14.775 13.0231 14.1333 11.3544 13.7744 10.5617Z" fill="#F6AB48"/>
<path d="M5.70108 4.01188C5.50663 3.94329 5.35513 4.18823 5.50082 4.32369C9.89798 8.41175 11.1441 16.3872 10.9261 19.8218C10.9198 19.9219 11.0074 20 11.1179 20H13.7407C13.8454 20 13.9303 19.9246 13.9301 19.8296C13.911 12.3548 12.5594 6.43091 5.70108 4.01188Z" fill="#F6AB48"/>
</svg>
