<svg width="24" height="24" viewBox="0 0 24 24" fill="none" xmlns="http://www.w3.org/2000/svg">
<path d="M3.25239 9.81997C3.06445 9.75266 2.91087 10.0224 3.05991 10.1476C6.5168 13.0532 7.03737 18.9101 6.8278 21.8296C6.82111 21.9229 6.90107 22 7.0024 22H9.40662C9.5026 22 9.58043 21.9263 9.58014 21.8377C9.55827 15.1642 8.17326 11.5823 3.25239 9.81997Z" fill="#14AE5C"/>
<path d="M21.7476 9.81997C21.9356 9.75266 22.0891 10.0224 21.9401 10.1476C18.4832 13.0532 17.9626 18.9101 18.1722 21.8296C18.1789 21.9229 18.0989 22 17.9976 22H15.5934C15.4974 22 15.4196 21.9263 15.4199 21.8377C15.4417 15.1642 16.8267 11.5823 21.7476 9.81997Z" fill="#14AE5C"/>
<path d="M13.6681 9.11902C13.6441 9.06498 13.6532 9.00347 13.693 8.95808C14.686 7.82656 16.0399 6.98581 17.8553 6.37685C18.0368 6.31597 18.1732 6.5459 18.0305 6.66588C16.5757 7.88845 14.5854 10.1136 14.5854 12.3786C14.5854 11.4143 13.9971 9.85824 13.6681 9.11902Z" fill="#14AE5C"/>
<path d="M6.26759 3.01108C6.08934 2.94712 5.95046 3.17553 6.08402 3.30185C10.1148 7.11409 11.1972 18.6309 10.9975 21.8339C10.9916 21.9272 11.0719 22 11.1733 22H13.5775C13.6734 22 13.7513 21.9297 13.7511 21.8411C13.7336 14.8706 12.5544 5.26689 6.26759 3.01108Z" fill="#14AE5C"/>
</svg>
