<svg width="24" height="24" viewBox="0 0 24 24" fill="none" xmlns="http://www.w3.org/2000/svg">
<path d="M18.7491 9.70957V9.00496C18.7491 5.13623 15.7274 2 12 2C8.27256 2 5.25087 5.13623 5.25087 9.00496V9.70957C5.25087 10.5552 5.00972 11.3818 4.5578 12.0854L3.45036 13.8095C2.5999 15.1336 3.01034 16.8575 4.20822 17.669C4.2356 17.6875 4.24929 17.6968 4.76201 17.8704C5.27474 18.0439 5.45398 18.0542 5.81247 18.0748C9.88053 18.3084 14.1195 18.3084 18.1875 18.0748C18.546 18.0542 18.7253 18.0439 19.238 17.8704C19.7507 17.6968 19.7644 17.6875 19.7918 17.669C20.9897 16.8575 21.4001 15.1336 20.5496 13.8095L19.4422 12.0854C18.9903 11.3818 18.7491 10.5552 18.7491 9.70957Z" stroke="#1C274C" stroke-width="1.5"/>
<path d="M7.5 18.25C8.15503 19.9978 9.92246 21.25 12 21.25C14.0775 21.25 15.845 19.9978 16.5 18.25" stroke="#1C274C" stroke-width="1.5" stroke-linecap="round"/>
</svg>
