<svg xmlns="http://www.w3.org/2000/svg" width="16" height="16" fill="none"><path stroke="#ADB1BA" stroke-width="1.5" d="m12.12 5.359.309-.31a1.31 1.31 0 1 1 1.854 1.855l-.31.309M12.12 5.359s.039.656.618 1.236c.58.579 1.236.618 1.236.618M12.12 5.359l-2.84 2.84a4.558 4.558 0 0 0-.372.395c-.097.125-.18.26-.25.404-.057.121-.1.25-.186.508l-.276.827-.089.267m5.867-3.387-2.84 2.84a4.545 4.545 0 0 1-.395.371c-.125.098-.26.182-.404.25-.121.058-.25.1-.509.187L9 11.136l-.267.09m0 0-.268.088a.353.353 0 0 1-.447-.447l.09-.267m.625.625-.626-.625"/><path stroke="#ADB1BA" stroke-linecap="round" stroke-width="1.5" d="M5.333 8.666H7M5.333 6h4.334M5.333 11.334h1M13.219 2.115c-.781-.781-2.038-.781-4.552-.781H7.333c-2.514 0-3.77 0-4.552.781C2 2.896 2 4.153 2 6.667v2.667c0 2.514 0 3.771.781 4.552.781.781 2.038.781 4.552.781h1.334c2.514 0 3.77 0 4.552-.78.629-.63.751-1.567.775-3.22"/></svg>